<svg width="90" height="90" viewBox="0 0 90 90" fill="none" xmlns="http://www.w3.org/2000/svg">
<rect x="0.5" y="0.5" width="89" height="89" fill="#212121" stroke="#333333"/>
<g clip-path="url(#clip0_92433_827)">
<path d="M62.732 63.846L66.558 21H24L24.05 21.556L27.82 63.852L27.852 64.204L45.118 69H45.39L62.696 64.2L62.728 63.848L62.732 63.846ZM45.316 30.358H57.682L57.31 34.678L45.11 40.102L45.314 41.078H56.762L55.444 56.18L45.272 59L35.104 56.184L34.464 48.952H38.65L38.986 52.618L39.018 52.974L45.188 54.614H45.454L51.556 52.918L51.586 52.564L52.162 45.792L52.208 45.24H34.114L33.734 40.894L46.352 35.492L46.152 34.512H33.192L32.822 30.352H45.302L45.316 30.358Z" fill="#2196f3"/>
</g>
<defs>
<clipPath id="clip0_92433_827">
<rect width="42" height="48" fill="white" transform="translate(24 21)"/>
</clipPath>
</defs>
</svg>
