<svg width="90" height="90" viewBox="0 0 90 90" fill="none" xmlns="http://www.w3.org/2000/svg">
<rect x="0.5" y="0.5" width="89" height="89" fill="#212121" stroke="#333333"/>
<path fill-rule="evenodd" clip-rule="evenodd" d="M21 21H69V69H21V21ZM57.694 61.24C55.468 61.24 54.21 60.08 53.244 58.5L49.578 60.63C50.902 63.246 53.608 65.242 57.798 65.242C62.082 65.242 65.272 63.018 65.272 58.956C65.272 55.19 63.108 53.516 59.276 51.87L58.148 51.388C56.212 50.548 55.374 50.002 55.374 48.648C55.374 47.554 56.214 46.716 57.534 46.716C58.828 46.716 59.662 47.262 60.436 48.648L63.948 46.394C62.462 43.78 60.402 42.782 57.534 42.782C53.506 42.782 50.928 45.358 50.928 48.742C50.928 52.412 53.088 54.15 56.344 55.536L57.472 56.02C59.53 56.92 60.756 57.468 60.756 59.014C60.756 60.306 59.562 61.24 57.694 61.24ZM40.214 61.21C38.664 61.21 38.018 60.15 37.31 58.89L33.638 61.114C34.702 63.366 36.794 65.234 40.404 65.234C44.402 65.234 47.14 63.108 47.14 58.438V43.038H42.63V58.378C42.63 60.632 41.694 61.21 40.212 61.21H40.214Z" fill="#efd81d"/>
</svg>
