<svg width="90" height="90" viewBox="0 0 90 90" fill="none" xmlns="http://www.w3.org/2000/svg">
<rect x="0.5" y="0.5" width="89" height="89" fill="#212121" stroke="#333333"/>
<path d="M69 44.378C69 41.198 65.018 38.184 58.912 36.316C60.322 30.094 59.696 25.142 56.936 23.556C56.2672 23.1814 55.5103 22.9929 54.744 23.01V25.19C55.194 25.19 55.556 25.28 55.86 25.446C57.19 26.21 57.768 29.114 57.318 32.852C57.21 33.772 57.034 34.74 56.818 35.728C54.7733 35.2353 52.698 34.8792 50.606 34.662C49.3597 32.9426 48 31.3083 46.536 29.77C49.726 26.806 52.72 25.182 54.756 25.182V23C52.064 23 48.542 24.918 44.98 28.244C41.42 24.94 37.896 23.04 35.206 23.04V25.22C37.232 25.22 40.236 26.836 43.426 29.78C42.056 31.22 40.686 32.852 39.384 34.662C37.2877 34.8767 35.2087 35.2363 33.162 35.738C32.936 34.76 32.77 33.812 32.652 32.902C32.192 29.162 32.76 26.258 34.082 25.486C34.374 25.31 34.756 25.23 35.206 25.23V23.05C34.386 23.05 33.64 23.226 32.996 23.596C30.246 25.182 29.63 30.122 31.048 36.326C24.962 38.206 21 41.208 21 44.378C21 47.558 24.982 50.572 31.088 52.438C29.678 58.662 30.304 63.614 33.064 65.198C33.7 65.57 34.444 65.746 35.264 65.746C37.956 65.746 41.478 63.828 45.04 60.502C48.6 63.808 52.122 65.706 54.814 65.706C55.5862 65.7223 56.3489 65.5332 57.024 65.158C59.774 63.574 60.39 58.634 58.972 52.43C65.038 50.562 69 47.548 69 44.378ZM56.26 37.852C55.88 39.1597 55.4395 40.4491 54.94 41.716C54.1223 40.1255 53.2245 38.5775 52.25 37.078C53.64 37.284 54.98 37.538 56.262 37.852H56.26ZM51.78 48.272C51.018 49.592 50.234 50.846 49.422 52.01C46.4865 52.2687 43.5341 52.2721 40.598 52.02C38.9139 49.6144 37.4411 47.0675 36.196 44.408C37.4392 41.7422 38.9057 39.1864 40.58 36.768C43.5148 36.5087 46.4665 36.5047 49.402 36.756C50.214 37.92 51.008 39.164 51.77 40.476C52.514 41.756 53.19 43.056 53.806 44.368C53.1832 45.6959 52.5073 46.9983 51.78 48.272ZM54.94 47C55.468 48.31 55.92 49.622 56.29 50.894C55.01 51.208 53.658 51.472 52.26 51.676C53.2305 50.1628 54.1249 48.6022 54.94 47ZM45.02 57.44C44.11 56.5 43.2 55.454 42.3 54.308C43.18 54.348 44.08 54.378 44.99 54.378C45.91 54.378 46.82 54.358 47.71 54.308C46.83 55.454 45.92 56.5 45.02 57.44ZM37.74 51.676C36.3915 51.4806 35.0527 51.223 33.728 50.904C34.09 49.642 34.54 48.34 35.048 47.04C35.45 47.82 35.872 48.604 36.332 49.388C36.792 50.17 37.26 50.934 37.74 51.676ZM44.97 31.316C45.88 32.256 46.79 33.302 47.69 34.448C46.81 34.408 45.91 34.378 45 34.378C44.08 34.378 43.17 34.398 42.28 34.448C43.16 33.302 44.07 32.256 44.97 31.316ZM37.73 37.08C36.7597 38.5899 35.8653 40.1471 35.05 41.746C34.5364 40.4709 34.0859 39.1713 33.7 37.852C34.98 37.548 36.332 37.284 37.73 37.08ZM28.876 49.328C25.412 47.852 23.172 45.914 23.172 44.378C23.172 42.842 25.412 40.894 28.876 39.428C29.716 39.066 30.636 38.742 31.586 38.44C32.144 40.356 32.878 42.352 33.786 44.398C32.9287 46.3224 32.2037 48.303 31.616 50.326C30.6869 50.0383 29.7725 49.7053 28.876 49.328ZM34.14 63.308C32.81 62.548 32.232 59.64 32.682 55.904C32.79 54.984 32.966 54.014 33.182 53.026C35.098 53.496 37.192 53.858 39.394 54.094C40.6404 55.8134 42 57.4477 43.464 58.986C40.274 61.95 37.28 63.574 35.244 63.574C34.8599 63.5782 34.4807 63.4875 34.14 63.31V63.308ZM57.348 55.854C57.808 59.592 57.24 62.498 55.918 63.27C55.626 63.446 55.244 63.524 54.794 63.524C52.768 63.524 49.764 61.91 46.574 58.964C47.944 57.528 49.314 55.894 50.616 54.084C52.7123 53.8693 54.7913 53.5097 56.838 53.008C57.064 53.996 57.238 54.944 57.348 55.854ZM61.114 49.328C60.274 49.69 59.354 50.014 58.404 50.316C57.806 48.2826 57.0709 46.2921 56.204 44.358C57.104 42.324 57.826 40.338 58.374 38.43C59.344 38.732 60.262 39.066 61.124 39.428C64.588 40.904 66.828 42.842 66.828 44.378C66.818 45.914 64.578 47.862 61.114 49.328Z" fill="#61dafb"/>
<path d="M44.9898 48.8498C46.1759 48.8498 47.3133 48.3786 48.152 47.5399C48.9907 46.7013 49.4618 45.5638 49.4618 44.3778C49.4618 43.1917 48.9907 42.0542 48.152 41.2156C47.3133 40.3769 46.1759 39.9058 44.9898 39.9058C43.8038 39.9058 42.6663 40.3769 41.8276 41.2156C40.989 42.0542 40.5178 43.1917 40.5178 44.3778C40.5178 45.5638 40.989 46.7013 41.8276 47.5399C42.6663 48.3786 43.8038 48.8498 44.9898 48.8498Z" fill="#61dafb"/>
</svg>
